<svg width="24" height="24" viewBox="0 0 24 24" fill="none" xmlns="http://www.w3.org/2000/svg">
<path d="M21.0002 4.50841C20.2167 5.07307 19.3492 5.50495 18.4312 5.78741C17.9384 5.20852 17.2835 4.79822 16.5551 4.612C15.8267 4.42578 15.0598 4.47262 14.3583 4.74619C13.6568 5.01977 13.0544 5.50686 12.6327 6.14161C12.2109 6.77636 11.9902 7.52813 12.0002 8.29525V9.1312C10.5624 9.1693 9.13765 8.84348 7.85289 8.18277C6.56812 7.52207 5.46323 6.54698 4.63661 5.34435C4.63661 5.34435 1.36388 12.8679 8.72752 16.2117C7.04249 17.3803 5.03519 17.9663 3.00024 17.8836C10.3639 22.0633 19.3639 17.8836 19.3639 8.27018C19.3631 8.03733 19.3412 7.80505 19.2984 7.57634C20.1335 6.73495 20.7227 5.67264 21.0002 4.50841V4.50841Z" stroke="white" stroke-width="2" stroke-linecap="round" stroke-linejoin="round"/>
</svg>
