<svg width="30" height="26" viewBox="0 0 30 26" fill="none" xmlns="http://www.w3.org/2000/svg">
<path d="M20.0899 1H1V18.3328H20.0899V1Z" stroke="#40B25C" stroke-width="2" stroke-linecap="round" stroke-linejoin="round"/>
<path d="M20.0915 7.66663H25.1821L29.0001 11.6665V18.3329H20.0915V7.66663Z" stroke="#40B25C" stroke-width="2" stroke-linecap="round" stroke-linejoin="round"/>
<path d="M6.72795 25C8.48513 25 9.90961 23.5077 9.90961 21.6668C9.90961 19.8259 8.48513 18.3336 6.72795 18.3336C4.97077 18.3336 3.5463 19.8259 3.5463 21.6668C3.5463 23.5077 4.97077 25 6.72795 25Z" stroke="#40B25C" stroke-width="2" stroke-linecap="round" stroke-linejoin="round"/>
<path d="M23.2731 25C25.0303 25 26.4548 23.5077 26.4548 21.6668C26.4548 19.8259 25.0303 18.3336 23.2731 18.3336C21.516 18.3336 20.0915 19.8259 20.0915 21.6668C20.0915 23.5077 21.516 25 23.2731 25Z" stroke="#40B25C" stroke-width="2" stroke-linecap="round" stroke-linejoin="round"/>
</svg>
